<svg xmlns="http://www.w3.org/2000/svg" xmlns:xlink="http://www.w3.org/1999/xlink" version="1.1" x="0px" y="0px" viewBox="0 0 100 125" enable-background="new 0 0 100 100" xml:space="preserve"><path d="M92.264,68.37l-0.042,0.001c-0.036-5.731-2.858-12.98-7.766-19.692c-5.047-6.341-8.894-8.957-11.985-11.059  c-0.585-0.398-1.148-0.781-1.694-1.173c-8.529-6.125-13.121-11.372-11.355-20.064l-3.827-0.778c0.111-1.202,0.28-2.428,0.536-3.681  l-3.912-0.798c-0.099-1.371-0.153-2.714-0.104-3.991L48.091,6.98c-0.016,0.406-0.015,0.819-0.018,1.23  c-0.331-0.93-0.689-1.856-1.107-2.772l-3.664,1.673c0.982,2.151,1.677,4.353,2.165,6.558l-1.868,0.153  c0.359,4.38-1.549,10.017-3.705,14.505l-0.024-0.011c-2.834,6.073-9.259,9.831-14.423,12.85c-2.291,1.34-4.27,2.497-5.612,3.653  c-7.726,6.149-9.967,9.602-11.419,17.586c-1.31,7.206-0.779,11.875,1.894,16.655c2.671,4.774,7.154,9.04,12.666,9.04  c1.563,0,3.211-0.347,4.922-1.12c1.576,1.649,3.417,3.014,5.567,3.831c3.32,1.262,6.198,1.903,8.487,1.903  c0.914,0,1.734-0.102,2.451-0.308c1.422-0.41,2.433-0.952,3.157-1.551c1.43,1.677,3.488,3.274,6.407,3.927  c1.949,0.437,3.684,0.657,5.244,0.657c2.833,0,5.095-0.728,7.03-2.213c0.92-0.706,1.749-1.771,2.493-3.062  c1.033,1.212,2.573,1.889,4.535,1.935c0.066,0.001,0.134,0.001,0.202,0.001c1.982,0,5.308-0.678,10.166-3.769  C91.967,83.035,92.346,71.714,92.264,68.37z M13.824,77.094c-1.905-3.406-2.753-6.784-1.447-13.968  c1.209-6.648,2.586-9.282,10.024-15.204c1.035-0.89,2.672-1.87,4.582-2.989c-1.258,1.783-2.552,3.824-3.859,6.178  c-3.082,6.144-3.693,13.426-2.938,19.266l-0.012,0.002c0.013,0.095,0.037,0.216,0.054,0.32c0.212,1.521,0.512,2.945,0.891,4.212  c0.5,1.673,1.659,4.549,2.681,7.085c0.246,0.61,0.518,1.285,0.754,1.882C18.849,85.117,14.956,79.118,13.824,77.094z M43.287,88.537  c-0.768,0.22-3.115,0.516-8.392-1.49c-6.393-2.43-9.926-12.338-10.672-16.872c-0.713-5.132-0.245-11.784,2.461-17.182  c4.715-8.489,9.315-12.579,11.278-14.325c1.855-1.65,6.278-8.611,8.452-16.009c0.027,5.626-0.857,10.805-1.517,14.623  c-0.307,1.777-0.55,3.18-0.634,4.262c-0.119,1.532-0.785,4.184-1.556,7.256C40.985,55.66,38.84,64.2,39.901,70.65  c0.924,5.62,2.651,9.838,3.912,12.92c0.617,1.506,1.15,2.807,1.337,3.698C45.191,87.457,45.296,87.957,43.287,88.537z   M63.788,90.031c-1.995,1.531-4.668,1.776-8.943,0.821c-4.728-1.058-6.201-6.031-6.261-6.242l-0.033,0.009  c-0.277-0.775-0.618-1.617-1.01-2.575c-1.188-2.904-2.816-6.878-3.666-12.047c-0.925-5.626,1.192-14.061,2.738-20.219  c0.849-3.382,1.52-6.054,1.665-7.925c0.069-0.893,0.309-2.281,0.587-3.887c0.609-3.522,1.469-8.534,1.553-14.131  c1.92,7.022,4.737,13.892,7.376,19.527c0.588,1.937,2.047,4.584,3.89,7.923c2.512,4.553,5.778,10.47,7.037,15.464  c0.579,2.989,0.627,5.984,0.149,9.247C67.787,83.41,65.443,88.76,63.788,90.031z M81.474,84.935c-4.561,2.9-7.178,3.191-8.112,3.138  c-1.505-0.035-1.779-0.652-1.944-1.336c-0.321-1.325,0.08-3.168,0.589-5.501c0.644-2.957,1.446-6.638,1.256-11.351  c-0.053-1.302-0.279-2.664-0.624-4.057c-0.774-3.872-2.329-7.729-4.785-11.907c-2.094-3.564-4.266-7.676-6.309-12.04  c-0.333-1.089-0.858-2.379-1.467-3.867c-1.281-3.129-2.897-7.096-3.843-11.722c2.236,5.76,7.269,9.889,12.194,13.426  c0.573,0.412,1.164,0.814,1.779,1.232c3.015,2.05,6.433,4.374,11.048,10.171c4.515,6.174,7.182,13.05,6.963,17.942l0.026,0.001  C88.248,72.432,87.619,81.027,81.474,84.935z"/></svg>