<svg width="66" height="28" viewBox="0 0 66 28" fill="none" xmlns="http://www.w3.org/2000/svg">
<path d="M10 23.5V21H8V22.5L6 24.5H4.5L2.5 22.5V4.5L4.75787 2.5H61L63.5 5V22.5L61 25H17.5L15.5 23V21H13.5V23.5L16.5 26.5H62L65 23.5V4L62 1H4L1 4V23.5L4 26.5H4.5H7L10 23.5Z" fill="#F5F5F5" stroke="#F5F5F5" stroke-width="1.3"/>
<path d="M10.7317 14.0079V20.3679H7.37174V4.83987H13.3477C15.3317 4.83987 16.3237 5.89587 16.3237 8.00787V9.80787C16.3237 11.0879 15.8677 11.9039 14.9557 12.2559C15.7557 12.5439 16.1557 13.1999 16.1557 14.2239V20.3679H12.7957V14.4879C12.7957 14.1679 12.6437 14.0079 12.3397 14.0079H10.7317ZM10.7317 7.11987V11.6559H12.5077C12.6357 11.6559 12.7397 11.6079 12.8197 11.5119C12.9157 11.4159 12.9637 11.3039 12.9637 11.1759V7.59987C12.9637 7.47187 12.9157 7.35987 12.8197 7.26387C12.7397 7.16787 12.6357 7.11987 12.5077 7.11987H10.7317ZM26.7851 11.5839V17.4399C26.7851 19.5519 25.7931 20.6079 23.8091 20.6079H21.0971C19.1131 20.6079 18.1211 19.5519 18.1211 17.4399V11.5839C18.1211 9.47187 19.1131 8.41587 21.0971 8.41587H23.8091C25.7931 8.41587 26.7851 9.47187 26.7851 11.5839ZM23.5691 18.1119V10.8879C23.5691 10.7599 23.5211 10.6479 23.4251 10.5519C23.3451 10.4559 23.2411 10.4079 23.1131 10.4079H21.7931C21.6651 10.4079 21.5531 10.4559 21.4571 10.5519C21.3771 10.6479 21.3371 10.7599 21.3371 10.8879V18.1119C21.3371 18.2399 21.3771 18.3519 21.4571 18.4479C21.5531 18.5439 21.6651 18.5919 21.7931 18.5919H23.1131C23.2411 18.5919 23.3451 18.5439 23.4251 18.4479C23.5211 18.3519 23.5691 18.2399 23.5691 18.1119ZM33.9167 8.41587H34.4207C36.4047 8.41587 37.3967 9.47187 37.3967 11.5839V17.4399C37.3967 19.5519 36.4047 20.6079 34.4207 20.6079H33.9167C32.7647 20.6079 31.9407 20.2399 31.4447 19.5039V20.3679H28.7327V4.83987H31.9487V8.99187C32.4607 8.60787 33.1167 8.41587 33.9167 8.41587ZM31.9487 11.1999V17.8239C31.9487 17.9519 31.9887 18.0639 32.0687 18.1599C32.1647 18.2559 32.2767 18.3039 32.4047 18.3039H33.7247C33.8527 18.3039 33.9567 18.2559 34.0367 18.1599C34.1327 18.0639 34.1807 17.9519 34.1807 17.8239V11.1999C34.1807 11.0719 34.1327 10.9599 34.0367 10.8639C33.9567 10.7679 33.8527 10.7199 33.7247 10.7199H32.4047C32.2767 10.7199 32.1647 10.7679 32.0687 10.8639C31.9887 10.9599 31.9487 11.0719 31.9487 11.1999ZM45.2482 17.8239V15.4239H48.4402V17.4399C48.4402 19.5519 47.4482 20.6079 45.4642 20.6079H42.4402C40.4562 20.6079 39.4642 19.5519 39.4642 17.4399V7.76787C39.4642 5.65587 40.4562 4.59987 42.4402 4.59987H45.4642C47.4482 4.59987 48.4402 5.65587 48.4402 7.76787V9.23187H45.2482V7.35987C45.2482 7.23187 45.2002 7.11987 45.1042 7.02387C45.0242 6.92787 44.9202 6.87987 44.7922 6.87987H43.2802C43.1522 6.87987 43.0402 6.92787 42.9442 7.02387C42.8642 7.11987 42.8242 7.23187 42.8242 7.35987V17.8239C42.8242 17.9519 42.8642 18.0639 42.9442 18.1599C43.0402 18.2559 43.1522 18.3039 43.2802 18.3039H44.7922C44.9202 18.3039 45.0242 18.2559 45.1042 18.1599C45.2002 18.0639 45.2482 17.9519 45.2482 17.8239ZM58.7604 11.5839V17.4399C58.7604 19.5519 57.7684 20.6079 55.7844 20.6079H53.0724C51.0884 20.6079 50.0964 19.5519 50.0964 17.4399V11.5839C50.0964 9.47187 51.0884 8.41587 53.0724 8.41587H55.7844C57.7684 8.41587 58.7604 9.47187 58.7604 11.5839ZM55.5444 18.1119V10.8879C55.5444 10.7599 55.4964 10.6479 55.4004 10.5519C55.3204 10.4559 55.2164 10.4079 55.0884 10.4079H53.7684C53.6404 10.4079 53.5284 10.4559 53.4324 10.5519C53.3524 10.6479 53.3124 10.7599 53.3124 10.8879V18.1119C53.3124 18.2399 53.3524 18.3519 53.4324 18.4479C53.5284 18.5439 53.6404 18.5919 53.7684 18.5919H55.0884C55.2164 18.5919 55.3204 18.5439 55.4004 18.4479C55.4964 18.3519 55.5444 18.2399 55.5444 18.1119Z" fill="#F5F5F5"/>
</svg>
